# xmcd CD database file
#
# Track frame offsets:
#	150
#	18994
#	32441
#	52626
#	75013
#	92173
#	109736
#	132236
#	148235
#	169291
#	192652
#
# Disc length: 2888 seconds
#
# Revision: 0
# Processed by: cddbd v1.5.2PL0 Copyright (c) Steve Scherf et al.
# Submitted via: CDex 1.51
#
DISCID=860b460b
DTITLE=Cadillac John Nolden and Cornlickers - Red's Juke Joint Sessions
DYEAR=2012
DGENRE=Blues
TTITLE0=Sugar Momma
TTITLE1=Seems Like A Dream
TTITLE2=Two Trains
TTITLE3=Big Legged Woman
TTITLE4=Too Many Drivers
TTITLE5=Good Morning
TTITLE6=Married Woman
TTITLE7=Vicksburg Blues
TTITLE8=Big Fat Woman
TTITLE9=Carzy 'Bout You
TTITLE10=Still A Fool
EXTD=YEAR: 2012
EXTT0=
EXTT1=
EXTT2=
EXTT3=
EXTT4=
EXTT5=
EXTT6=
EXTT7=
EXTT8=
EXTT9=
EXTT10=
PLAYORDER=
